# xmcd CD Database Entry
#
# Track frame offsets:
# 150
# 31708
# 58666
# 91135
# 126327
# 142933
# 166384
# 202727
# 234201
# 254386
#
# Disc length: 3841 seconds
#
# Revision: 1
# Processed by: cddbd v1.4b41PL1 Copyright (c) Steve Scherf et al.
# Submitted via: tcd 2.0b
#
DISCID=770eff0a
DTITLE=Eric Clapton - Blues
DYEAR=1900
DGENRE=
TTITLE0=Stormy Monday
TTITLE1=Worried Life Blues
TTITLE2=Early In The Morning
TTITLE3=Have You Ever Loved A Woman
TTITLE4=Wonderful Tonight
TTITLE5=Kind Hearted Woman
TTITLE6=Double Trouble
TTITLE7=Driftin' Blues
TTITLE8=Crossroads
TTITLE9=Further On Up The Road - (previously unreleased)
EXTD=
EXTT0=
EXTT1=
EXTT2=
EXTT3=
EXTT4=
EXTT5=
EXTT6=
EXTT7=
EXTT8=
EXTT9=
PLAYORDER=
